<?xml version="1.0" standalone="no"?>
<!DOCTYPE svg PUBLIC "-//W3C//DTD SVG 20010904//EN"
 "http://www.w3.org/TR/2001/REC-SVG-20010904/DTD/svg10.dtd">
<svg version="1.0" xmlns="http://www.w3.org/2000/svg"
 width="14.000000pt" height="200.000000pt" viewBox="0 0 14.000000 200.000000"
 preserveAspectRatio="xMidYMid meet">

<g transform="translate(0.000000,200.000000) scale(0.100000,-0.100000)"
fill="#000000" stroke="none">
<path d="M38 904 c-16 -8 -28 -20 -28 -26 0 -7 7 -5 18 4 9 8 26 20 37 26 11
6 16 11 10 11 -5 0 -22 -7 -37 -15z"/>
<path d="M60 879 c0 -5 5 -7 10 -4 6 3 10 8 10 11 0 2 -4 4 -10 4 -5 0 -10 -5
-10 -11z"/>
<path d="M90 865 c-8 -9 -8 -15 -2 -15 12 0 26 19 19 26 -2 2 -10 -2 -17 -11z"/>
<path d="M69 406 c-28 -33 -49 -84 -30 -72 6 4 11 12 11 19 0 6 12 23 26 38
14 15 25 31 23 36 -2 5 -16 -5 -30 -21z"/>
<path d="M87 353 c-4 -3 -7 -11 -7 -17 0 -6 5 -5 12 2 6 6 9 14 7 17 -3 3 -9
2 -12 -2z"/>
</g>
</svg>
